HIERARCHY
ROOT hip
{
	OFFSET 0.000000 0.000000 0.000000 
	CHANNELS 6 Xposition Yposition Zposition Xrotation Zrotation Yrotation
	JOINT abdomen
	{
		OFFSET 0.000000 3.402643 0.000000 
		CHANNELS 3 Xrotation Zrotation Yrotation
		JOINT chest
		{
			OFFSET 0.000000 8.438565 -0.680529 
			CHANNELS 3 Xrotation Zrotation Yrotation
			JOINT neck
			{
				OFFSET 0.000000 10.207942 -0.272212 
				CHANNELS 3 Xrotation Zrotation Yrotation
				JOINT head
				{
					OFFSET 0.000000 3.130431 0.000000 
					CHANNELS 3 Xrotation Zrotation Yrotation
					End Site
					{
						OFFSET 0.000000 3.130435 0.000000 
					}
				}
			}
			JOINT lCollar
			{
				OFFSET 3.470700 6.669187 -0.816635 
				CHANNELS 3 Yrotation Zrotation Xrotation
				JOINT lShldr
				{
					OFFSET 3.198488 0.000000 0.000000 
					CHANNELS 3 Zrotation Yrotation Xrotation
					JOINT lForeArm
					{
						OFFSET 10.139888 0.000000 0.000000 
						CHANNELS 3 Yrotation Zrotation Xrotation
						JOINT lHand
						{
							OFFSET 8.370511 0.000000 0.000000 
							CHANNELS 3 Zrotation Yrotation Xrotation
							End Site
							{
								OFFSET 4.083176 0.000000 0.000000 
							}
						}
					}
				}
			}
			JOINT rCollar
			{
				OFFSET -3.470700 6.669187 -0.816635 
				CHANNELS 3 Yrotation Zrotation Xrotation
				JOINT rShldr
				{
					OFFSET -3.198488 0.000000 0.000000 
					CHANNELS 3 Zrotation Yrotation Xrotation
					JOINT rForeArm
					{
						OFFSET -10.139888 0.000000 0.000000 
						CHANNELS 3 Yrotation Zrotation Xrotation
						JOINT rHand
						{
							OFFSET -8.370511 0.000000 0.000000 
							CHANNELS 3 Zrotation Yrotation Xrotation
							End Site
							{
								OFFSET -4.083176 0.000000 0.000000 
							}
						}
					}
				}
			}
		}
	}
	JOINT lThigh
	{
		OFFSET 5.308129 -1.633274 1.361059 
		CHANNELS 3 Xrotation Zrotation Yrotation
		JOINT lShin
		{
			OFFSET -2.041588 -20.007561 0.000000 
			CHANNELS 3 Xrotation Zrotation Yrotation
			JOINT lFoot
			{
				OFFSET 0.000000 -19.190928 -1.224953 
				CHANNELS 3 Xrotation Yrotation Zrotation
				End Site
				{
					OFFSET 0.000000 -2.449906 4.627600 
				}
			}
		}
	}
	JOINT rThigh
	{
		OFFSET -5.308129 -1.633274 1.361059 
		CHANNELS 3 Xrotation Zrotation Yrotation
		JOINT rShin
		{
			OFFSET 2.041588 -20.007561 0.000000 
			CHANNELS 3 Xrotation Zrotation Yrotation
			JOINT rFoot
			{
				OFFSET 0.000000 -19.190928 -1.224953 
				CHANNELS 3 Xrotation Yrotation Zrotation
				End Site
				{
					OFFSET 0.000000 -2.449906 4.627600 
				}
			}
		}
	}
}
MOTION
Frames: 11
Frame Time: 0.016667
-1.412867 44.152393 -0.163898 8.979420 -5.643330 -5.314540 -31.380800 2.331770 0.016424 7.878250 -1.152840 0.386228 18.930700 10.404600 -12.777200 13.794300 7.189430 -6.535400 2.000000 -2.000000 0.000000 -91.782997 10.895800 162.222000 20.576401 -0.342842 0.048110 0.058617 0.055753 -112.820000 -2.000000 2.000000 0.000000 91.403702 -9.314720 153.826996 -21.308800 0.342218 0.049685 -0.086804 -0.096695 -99.861397 0.701643 5.525534 -42.878414 -0.737936 4.261357 -0.183908 -33.848000 46.974930 26.826422 -4.937843 7.964690 26.460011 0.452867 -1.318251 -0.228231 -4.992575 -23.726042 -3.139136 
-1.418090 44.151371 -0.162525 8.989390 -5.652820 -5.326790 -31.390400 2.326660 0.030328 7.887930 -1.171940 0.390313 19.102400 10.296900 -12.763300 13.841900 7.120920 -6.531090 2.000000 -2.000000 0.000000 -91.734596 10.906800 162.759003 20.469000 -0.342932 0.047870 0.057148 0.052366 -114.139000 -2.000000 2.000000 0.000000 91.413498 -9.324570 153.865997 -21.377199 0.342158 0.049837 -0.086771 -0.096651 -99.880898 0.711329 5.537158 -42.947178 -0.847715 4.260992 -0.183631 -33.120350 47.589771 26.451338 -4.944897 7.962681 26.429312 0.417330 -1.289109 -0.239292 -4.899457 -23.728739 -3.106853 
-1.424763 44.152779 -0.159582 8.960560 -5.691870 -5.329960 -31.370899 2.330480 0.040114 7.907380 -1.191080 0.403954 19.277300 10.206000 -12.774600 13.909600 7.071200 -6.530930 2.000000 -2.000000 0.000000 -91.686096 10.937400 163.335007 20.390900 -0.342997 0.047696 0.055668 0.048717 -115.544998 -2.000000 2.000000 0.000000 91.432999 -9.314850 153.886002 -21.416300 0.342124 0.049923 -0.086705 -0.096564 -99.919998 0.789167 5.578389 -43.125553 -0.953053 4.278795 -0.193956 -32.539268 48.252216 26.185356 -4.876856 7.961861 26.400774 0.295029 -1.211359 -0.234109 -4.824365 -23.700953 -3.123023 
-1.441389 44.163460 -0.138006 9.017770 -5.584850 -5.289710 -31.360100 2.278700 0.038391 8.063880 -1.144140 0.390147 19.432800 10.254800 -12.761800 13.988300 7.069360 -6.531080 2.000000 -2.000000 0.000000 -91.608498 10.968100 163.960007 20.341999 -0.343038 0.047587 0.054259 0.044981 -116.971001 -2.000000 2.000000 0.000000 91.413696 -9.237180 154.100998 -21.250200 0.342268 0.049554 -0.086278 -0.095995 -100.174004 0.750555 5.477365 -43.393570 -1.015856 4.274476 -0.194209 -31.808020 48.947754 25.858673 -4.966413 7.987361 26.513880 0.514829 -1.389270 -0.215768 -4.941656 -23.852322 -3.057207 
-1.464846 44.182232 -0.099996 9.228700 -5.263400 -5.220040 -31.377899 2.175840 0.010339 8.377050 -0.992769 0.360715 19.545099 10.399800 -12.727300 14.068400 7.125190 -6.521100 2.000000 -2.000000 0.000000 -91.540901 11.039300 165.210007 20.254101 -0.343111 0.047390 0.051771 0.037567 -119.764000 -2.000000 2.000000 0.000000 91.296898 -9.072050 154.511002 -20.869400 0.342595 0.048706 -0.085562 -0.085262 -100.603996 0.527936 5.145209 -43.740696 -1.189935 4.260085 -0.193071 -29.848684 50.361057 24.653580 -5.097105 7.610555 26.748268 0.317183 -1.326495 -0.231696 -4.968217 -24.109175 -3.143788 
-1.478461 44.189049 -0.085509 9.383570 -5.126170 -5.211270 -31.376499 2.117480 0.046268 8.552960 -0.964766 0.371108 19.594000 10.437400 -12.786900 14.097500 7.105260 -6.540380 2.000000 -2.000000 0.000000 -91.414001 11.010100 165.210007 20.195499 -0.343159 0.047259 0.051860 0.037855 -119.655998 -2.000000 2.000000 0.000000 91.316399 -8.955030 154.589996 -20.654499 0.342777 0.048227 -0.085320 -0.084932 -100.750000 0.440457 5.011901 -43.840103 -1.181858 4.272446 -0.194031 -30.170773 50.309036 24.909643 -5.196467 7.412927 26.801292 0.161928 -1.244283 -0.198043 -4.889830 -24.204102 -3.179045 
-1.483246 44.184803 -0.091567 9.433750 -5.202510 -5.248800 -31.375700 2.111560 0.139741 8.581860 -1.069950 0.412427 19.524401 10.328300 -12.930700 14.065400 7.000190 -6.591900 2.000000 -2.000000 0.000000 -91.248001 10.961300 165.248993 20.117399 -0.343223 0.047084 0.051950 0.038142 -119.549004 -2.000000 2.000000 0.000000 91.482201 -8.895850 154.315994 -20.625200 0.342801 0.048161 -0.085433 -0.085086 -100.681999 0.372346 5.118330 -43.824291 -1.171242 4.265073 -0.212746 -30.479719 50.178253 25.140505 -5.354028 7.678390 26.728830 0.499203 -1.466552 -0.195715 -4.842916 -24.173363 -2.962419 
-1.488392 44.182613 -0.094798 9.454090 -5.250380 -5.287870 -31.375500 2.116940 0.181398 8.581670 -1.117720 0.432319 19.425699 10.288900 -13.010700 14.024900 6.953030 -6.614840 2.000000 -2.000000 0.000000 -91.160004 10.961100 165.151993 20.068600 -0.343263 0.046974 0.052024 0.038377 -119.460999 -2.000000 2.000000 0.000000 91.579697 -8.876050 154.188995 -20.595900 0.342826 0.048096 -0.085449 -0.085108 -100.671997 0.361605 5.177617 -43.811810 -1.162776 4.267447 -0.203660 -30.657290 50.117168 25.287479 -5.314078 7.610090 26.734692 0.240255 -1.291572 -0.195152 -4.719687 -24.138731 -3.038229 
-1.493649 44.184940 -0.099597 9.434480 -5.250680 -5.295840 -31.356100 2.125630 0.176890 8.562210 -1.098530 0.438409 19.321301 10.372800 -13.003000 13.996600 7.001800 -6.619760 2.000000 -2.000000 0.000000 -91.179497 10.980500 165.082993 20.146700 -0.343199 0.047149 0.052230 0.039028 -119.217003 -2.000000 2.000000 0.000000 91.560204 -8.866410 154.248001 -20.595900 0.342826 0.048096 -0.085304 -0.084910 -100.760002 0.381240 5.195828 -43.841541 -1.177471 4.263448 -0.203168 -30.639273 50.171452 25.286850 -5.338102 7.694780 26.721691 0.387239 -1.388476 -0.199556 -4.773263 -24.109352 -2.982255 
-1.499940 44.187897 -0.107944 9.395550 -5.270540 -5.295450 -31.337000 2.142660 0.167313 8.533030 -1.069760 0.432869 19.136700 10.455000 -13.009400 13.938700 7.051270 -6.608790 2.000000 -2.000000 0.000000 -91.228302 10.970600 165.054001 20.283400 -0.343086 0.047455 0.052668 0.040381 -118.709000 -2.000000 2.000000 0.000000 91.540703 -8.856640 154.248001 -20.586201 0.342834 0.048074 -0.085271 -0.084865 -100.778999 0.331851 5.214351 -43.908699 -1.171518 4.265150 -0.193147 -30.436750 50.349621 25.170834 -5.330053 7.748916 26.703516 0.451889 -1.430570 -0.197377 -4.820171 -24.089178 -2.963321 
-1.506871 44.186993 -0.115258 9.405950 -5.308930 -5.292940 -31.337999 2.174080 0.114140 8.533290 -1.002900 0.408868 18.931900 10.448800 -12.993400 13.851100 7.091820 -6.603200 2.000000 -2.000000 0.000000 -91.345299 10.950200 164.673004 20.263901 -0.343102 0.047412 0.053180 0.041911 -118.133003 -2.000000 2.000000 0.000000 91.491798 -8.866340 154.218994 -20.566601 0.342850 0.048030 -0.085465 -0.085130 -100.662003 0.313108 5.290894 -43.875515 -1.196889 4.258076 -0.203007 -30.271839 50.398003 25.063974 -5.267650 7.697210 26.683409 0.231804 -1.303217 -0.204942 -4.707081 -24.050390 -3.018413 
